<svg width="12" height="12" viewBox="0 0 12 12" fill="none" xmlns="http://www.w3.org/2000/svg">
<path d="M9.20291 3.51703C9.60056 3.51703 9.92291 3.19467 9.92291 2.79703C9.92291 2.39938 9.60056 2.07703 9.20291 2.07703C8.80527 2.07703 8.48291 2.39938 8.48291 2.79703C8.48291 3.19467 8.80527 3.51703 9.20291 3.51703Z" fill="#0B120B"/>
<path d="M5.99995 2.91901C5.39058 2.91901 4.7949 3.0997 4.28823 3.43825C3.78157 3.77679 3.38667 4.25798 3.15347 4.82096C2.92028 5.38394 2.85927 6.00342 2.97815 6.60108C3.09703 7.19873 3.39047 7.74772 3.82135 8.1786C4.25224 8.60949 4.80122 8.90292 5.39887 9.02181C5.99653 9.14069 6.61601 9.07967 7.17899 8.84648C7.74197 8.61329 8.22316 8.21839 8.5617 7.71172C8.90025 7.20505 9.08095 6.60937 9.08095 6.00001C9.08095 5.18287 8.75634 4.39921 8.17854 3.82141C7.60074 3.24361 6.81708 2.91901 5.99995 2.91901ZM5.99995 8.00001C5.60438 8.00001 5.2177 7.88271 4.88881 7.66295C4.55991 7.44318 4.30356 7.13083 4.15219 6.76537C4.00081 6.39992 3.96121 5.99779 4.03838 5.60983C4.11555 5.22186 4.30603 4.8655 4.58573 4.58579C4.86544 4.30609 5.2218 4.11561 5.60977 4.03844C5.99773 3.96126 6.39986 4.00087 6.76531 4.15225C7.13077 4.30362 7.44312 4.55997 7.66289 4.88887C7.88265 5.21776 7.99995 5.60444 7.99995 6.00001C7.99995 6.53044 7.78923 7.03915 7.41416 7.41422C7.03909 7.78929 6.53038 8.00001 5.99995 8.00001Z" fill="#0B120B"/>
<path d="M6 1.081C7.602 1.081 7.792 1.087 8.4245 1.116C8.80492 1.12052 9.18174 1.19037 9.5385 1.3225C9.79733 1.42235 10.0324 1.57527 10.2286 1.77144C10.4247 1.96761 10.5777 2.20267 10.6775 2.4615C10.8096 2.81826 10.8795 3.19508 10.884 3.5755C10.913 4.208 10.919 4.398 10.919 6.0005C10.919 7.603 10.913 7.792 10.884 8.4245C10.8795 8.80492 10.8096 9.18174 10.6775 9.5385C10.5777 9.79733 10.4247 10.0324 10.2286 10.2286C10.0324 10.4247 9.79733 10.5777 9.5385 10.6775C9.18174 10.8096 8.80492 10.8795 8.4245 10.884C7.792 10.913 7.602 10.919 6 10.919C4.398 10.919 4.208 10.913 3.5755 10.884C3.19508 10.8795 2.81826 10.8096 2.4615 10.6775C2.20267 10.5777 1.96761 10.4247 1.77144 10.2286C1.57527 10.0324 1.42235 9.79733 1.3225 9.5385C1.19037 9.18174 1.12052 8.80492 1.116 8.4245C1.087 7.792 1.081 7.602 1.081 6C1.081 4.398 1.087 4.208 1.116 3.5755C1.12052 3.19508 1.19037 2.81826 1.3225 2.4615C1.42235 2.20267 1.57527 1.96761 1.77144 1.77144C1.96761 1.57527 2.20267 1.42235 2.4615 1.3225C2.81826 1.19037 3.19508 1.12052 3.5755 1.116C4.208 1.087 4.398 1.081 6 1.081V1.081ZM6 0C4.3705 0 4.166 0.00700001 3.526 0.036C3.02839 0.0460481 2.53608 0.140385 2.07 0.315C1.67136 0.469149 1.30933 0.704889 1.00711 1.00711C0.704889 1.30933 0.469149 1.67136 0.315 2.07C0.140329 2.53624 0.0459917 3.02872 0.036 3.5265C0.00700001 4.1665 0 4.37 0 6C0 7.63 0.00700001 7.834 0.036 8.474C0.0460481 8.97161 0.140385 9.46392 0.315 9.93C0.469149 10.3286 0.704889 10.6907 1.00711 10.9929C1.30933 11.2951 1.67136 11.5309 2.07 11.685C2.53624 11.8597 3.02872 11.954 3.5265 11.964C4.1665 11.993 4.3705 12 6 12C7.6295 12 7.834 11.993 8.474 11.964C8.97178 11.954 9.46426 11.8597 9.9305 11.685C10.3291 11.5309 10.6912 11.2951 10.9934 10.9929C11.2956 10.6907 11.5314 10.3286 11.6855 9.93C11.86 9.46373 11.9542 8.97125 11.964 8.4735C11.993 7.8335 12 7.63 12 6C12 4.37 11.993 4.166 11.964 3.526C11.954 3.02839 11.8596 2.53608 11.685 2.07C11.5309 1.67136 11.2951 1.30933 10.9929 1.00711C10.6907 0.704889 10.3286 0.469149 9.93 0.315C9.46373 0.1405 8.97125 0.0463316 8.4735 0.0365C7.8335 0.00649998 7.63 0 6 0Z" fill="#0B120B"/>
</svg>
