<svg width="11" height="11" viewBox="0 0 11 11" fill="none" xmlns="http://www.w3.org/2000/svg">
<path d="M1.22487 2.44973C1.90134 2.44973 2.44973 1.90134 2.44973 1.22487C2.44973 0.548391 1.90134 0 1.22487 0C0.548391 0 0 0.548391 0 1.22487C0 1.90134 0.548391 2.44973 1.22487 2.44973Z" fill="#0B120B"/>
<path d="M3.60648 3.3779V10.1734H5.71641V6.8129C5.71641 5.92616 5.88323 5.06741 6.9827 5.06741C8.06705 5.06741 8.08049 6.08123 8.08049 6.86888V10.174H10.1915V6.44735C10.1915 4.61677 9.79743 3.20996 7.65783 3.20996C6.63058 3.20996 5.94201 3.77369 5.66042 4.30719H5.63187V3.3779H3.60648ZM0.168121 3.3779H2.28141V10.1734H0.168121V3.3779Z" fill="#0B120B"/>
</svg>
