<svg width="102" height="106" viewBox="0 0 102 106" fill="none" xmlns="http://www.w3.org/2000/svg">
<path d="M0 18C0 8.05887 8.05888 0 18 0H84C93.9411 0 102 8.05888 102 18V88C102 97.9411 93.9411 106 84 106H18C8.05887 106 0 97.9411 0 88V18Z" fill="#BF83FF"/>
<path d="M56.625 29H35C32.7909 29 31 30.7909 31 33V73C31 75.2091 32.7909 77 35 77H67C69.2091 77 71 75.2091 71 73V42.8M56.625 29L71 42.8M56.625 29V40.8C56.625 41.9046 57.5204 42.8 58.625 42.8H71" stroke="white" stroke-width="3" stroke-linejoin="round"/>
</svg>
